<?xml version="1.0" encoding="utf-8"?>
<!DOCTYPE svg PUBLIC "-//W3C//DTD SVG 20010904//EN" "http://www.w3.org/TR/2001/REC-SVG-20010904/DTD/svg10.dtd">
<svg version="1.0" xmlns="http://www.w3.org/2000/svg" width="512pt" height="512pt" viewBox="0 0 512 512" style="" preserveAspectRatio="xMidYMid meet">
<g fill="#000000FF" stroke="#000000FF">
<path d="M 272.000 24.000 L 272.000 32.000 264.000 32.000 L 256.000 32.000 256.000 40.000 L 256.000 48.000 248.000 48.000 L 240.000 48.000 240.000 72.000 L 240.000 96.000 232.000 96.000 L 224.000 96.000 224.000 104.000 L 224.000 112.000 208.000 112.000 L 192.000 112.000 192.000 88.000 L 192.000 64.000 176.000 64.000 L 160.000 64.000 160.000 56.000 L 160.000 48.000 136.000 48.000 L 112.000 48.000 112.000 56.000 L 112.000 64.000 96.000 64.000 L 80.000 64.000 80.000 72.000 L 80.000 80.000 72.000 80.000 L 64.000 80.000 64.000 112.000 L 64.000 144.000 72.000 144.000 L 80.000 144.000 80.000 152.000 L 80.000 160.000 88.000 160.000 L 96.000 160.000 96.000 184.000 L 96.000 208.000 80.000 208.000 L 64.000 208.000 64.000 216.000 L 64.000 224.000 56.000 224.000 L 48.000 224.000 48.000 240.000 L 48.000 256.000 40.000 256.000 L 32.000 256.000 32.000 304.000 L 32.000 352.000 40.000 352.000 L 48.000 352.000 48.000 360.000 L 48.000 368.000 56.000 368.000 L 64.000 368.000 64.000 376.000 L 64.000 384.000 96.000 384.000 L 128.000 384.000 128.000 376.000 L 128.000 368.000 136.000 368.000 L 144.000 368.000 144.000 360.000 L 144.000 352.000 160.000 352.000 L 176.000 352.000 176.000 392.000 L 176.000 432.000 184.000 432.000 L 192.000 432.000 192.000 448.000 L 192.000 464.000 200.000 464.000 L 208.000 464.000 208.000 472.000 L 208.000 480.000 224.000 480.000 L 240.000 480.000 240.000 488.000 L 240.000 496.000 280.000 496.000 L 320.000 496.000 320.000 488.000 L 320.000 480.000 336.000 480.000 L 352.000 480.000 352.000 472.000 L 352.000 464.000 360.000 464.000 L 368.000 464.000 368.000 448.000 L 368.000 432.000 376.000 432.000 L 384.000 432.000 384.000 400.000 L 384.000 368.000 376.000 368.000 L 368.000 368.000 368.000 352.000 L 368.000 336.000 352.000 336.000 L 336.000 336.000 336.000 328.000 L 336.000 320.000 328.000 320.000 L 320.000 320.000 320.000 304.000 L 320.000 288.000 328.000 288.000 L 336.000 288.000 336.000 280.000 L 336.000 272.000 360.000 272.000 L 384.000 272.000 384.000 280.000 L 384.000 288.000 408.000 288.000 L 432.000 288.000 432.000 280.000 L 432.000 272.000 440.000 272.000 L 448.000 272.000 448.000 264.000 L 448.000 256.000 456.000 256.000 L 464.000 256.000 464.000 224.000 L 464.000 192.000 456.000 192.000 L 448.000 192.000 448.000 176.000 L 448.000 160.000 440.000 160.000 L 432.000 160.000 432.000 152.000 L 432.000 144.000 384.000 144.000 L 336.000 144.000 336.000 136.000 L 336.000 128.000 352.000 128.000 L 368.000 128.000 368.000 120.000 L 368.000 112.000 376.000 112.000 L 384.000 112.000 384.000 80.000 L 384.000 48.000 376.000 48.000 L 368.000 48.000 368.000 40.000 L 368.000 32.000 360.000 32.000 L 352.000 32.000 352.000 24.000 L 352.000 16.000 312.000 16.000 L 272.000 16.000 272.000 24.000 M 80.000 256.000 L 80.000 272.000 72.000 272.000 L 64.000 272.000 64.000 304.000 L 64.000 336.000 72.000 336.000 L 80.000 336.000 80.000 344.000 L 80.000 352.000 72.000 352.000 L 64.000 352.000 64.000 344.000 L 64.000 336.000 56.000 336.000 L 48.000 336.000 48.000 304.000 L 48.000 272.000 56.000 272.000 L 64.000 272.000 64.000 256.000 L 64.000 240.000 72.000 240.000 L 80.000 240.000 80.000 256.000 M 224.000 408.000 L 224.000 448.000 232.000 448.000 L 240.000 448.000 240.000 456.000 L 240.000 464.000 232.000 464.000 L 224.000 464.000 224.000 456.000 L 224.000 448.000 216.000 448.000 L 208.000 448.000 208.000 408.000 L 208.000 368.000 216.000 368.000 L 224.000 368.000 224.000 408.000 M 288.000 472.000 L 288.000 480.000 272.000 480.000 L 256.000 480.000 256.000 472.000 L 256.000 464.000 272.000 464.000 L 288.000 464.000 288.000 472.000 M 96.000 112.000 L 96.000 128.000 88.000 128.000 L 80.000 128.000 80.000 112.000 L 80.000 96.000 88.000 96.000 L 96.000 96.000 96.000 112.000 M 272.000 80.000 L 272.000 96.000 264.000 96.000 L 256.000 96.000 256.000 80.000 L 256.000 64.000 264.000 64.000 L 272.000 64.000 272.000 80.000 M 112.000 360.000 L 112.000 368.000 104.000 368.000 L 96.000 368.000 96.000 360.000 L 96.000 352.000 104.000 352.000 L 112.000 352.000 112.000 360.000 M 112.000 232.000 L 112.000 240.000 104.000 240.000 L 96.000 240.000 96.000 232.000 L 96.000 224.000 104.000 224.000 L 112.000 224.000 112.000 232.000 M 144.000 72.000 L 144.000 80.000 136.000 80.000 L 128.000 80.000 128.000 72.000 L 128.000 64.000 136.000 64.000 L 144.000 64.000 144.000 72.000 M 304.000 40.000 L 304.000 48.000 296.000 48.000 L 288.000 48.000 288.000 40.000 L 288.000 32.000 296.000 32.000 L 304.000 32.000 304.000 40.000 "/></g>
<g fill="#000000FF" stroke="#000000FF">
<path d="M 416.000 328.000 L 416.000 336.000 408.000 336.000 L 400.000 336.000 400.000 352.000 L 400.000 368.000 408.000 368.000 L 416.000 368.000 416.000 392.000 L 416.000 416.000 440.000 416.000 L 464.000 416.000 464.000 400.000 L 464.000 384.000 472.000 384.000 L 480.000 384.000 480.000 352.000 L 480.000 320.000 448.000 320.000 L 416.000 320.000 416.000 328.000 "/></g>
<g fill="#000000FF" stroke="#000000FF">
<path d="M 432.000 40.000 L 432.000 48.000 424.000 48.000 L 416.000 48.000 416.000 72.000 L 416.000 96.000 424.000 96.000 L 432.000 96.000 432.000 104.000 L 432.000 112.000 448.000 112.000 L 464.000 112.000 464.000 104.000 L 464.000 96.000 472.000 96.000 L 480.000 96.000 480.000 88.000 L 480.000 80.000 488.000 80.000 L 496.000 80.000 496.000 64.000 L 496.000 48.000 488.000 48.000 L 480.000 48.000 480.000 40.000 L 480.000 32.000 456.000 32.000 L 432.000 32.000 432.000 40.000 "/></g>
<g fill="#000000FF" stroke="#000000FF">
<path d="M 32.000 176.000 L 32.000 192.000 48.000 192.000 L 64.000 192.000 64.000 176.000 L 64.000 160.000 48.000 160.000 L 32.000 160.000 32.000 176.000 "/></g>
<g fill="#000000FF" stroke="#000000FF">
<path d="M 48.000 40.000 L 48.000 48.000 56.000 48.000 L 64.000 48.000 64.000 40.000 L 64.000 32.000 56.000 32.000 L 48.000 32.000 48.000 40.000 "/></g>
</svg>
